<svg width="40" height="40" viewBox="0 0 40 40" fill="none" xmlns="http://www.w3.org/2000/svg">
<path d="M23.7515 29.1705V36.6737L20 34.7979L16.2484 36.6737V29.1705" stroke="white" stroke-width="1.5" stroke-linecap="round" stroke-linejoin="round"/>
<path fill-rule="evenodd" clip-rule="evenodd" d="M13.6974 24.7304L14.5844 25.8975L14.7762 27.3398C14.8828 28.1396 15.512 28.7689 16.3118 28.8755L17.7574 29.0689L18.9146 29.9542C19.5551 30.4412 20.4417 30.4412 21.0822 29.9542L22.2493 29.0689V29.0689L23.6932 28.8755C24.4934 28.769 25.1232 28.1399 25.2305 27.3398L25.424 25.8942C25.424 25.8942 25.8708 25.309 26.3093 24.7371C26.7963 24.0966 26.7963 23.21 26.3093 22.5695L25.424 21.4023L25.2305 19.9601C25.1248 19.1601 24.4963 18.5302 23.6966 18.4228L22.2493 18.231L21.0822 17.3473C20.4423 16.8587 19.5545 16.8587 18.9146 17.3473L17.7474 18.231V18.231L16.3035 18.4228C15.5034 18.5288 14.8739 19.1583 14.7679 19.9584L14.5744 21.404L13.6891 22.5612C13.2049 23.2042 13.2083 24.0911 13.6974 24.7304V24.7304Z" stroke="white" stroke-width="1.5" stroke-linecap="round" stroke-linejoin="round"/>
<path d="M28.3368 31.6716H31.6716C33.5133 31.6716 35.0063 30.1786 35.0063 28.3369V9.31727C35.0063 7.47555 33.5133 5.98254 31.6716 5.98254H8.3285C6.48678 5.98254 4.99377 7.47555 4.99377 9.31727V28.3369C4.99377 30.1786 6.48678 31.6716 8.3285 31.6716H11.6632" stroke="white" stroke-width="1.5" stroke-linecap="round" stroke-linejoin="round"/>
<path d="M12.4969 11.6633H27.5032" stroke="white" stroke-width="1.5" stroke-linecap="round" stroke-linejoin="round"/>
</svg>
