<svg width="40" height="40" viewBox="0 0 40 40" fill="none" xmlns="http://www.w3.org/2000/svg">
<path d="M30.8379 11.5853L26.8949 6.3279C25.833 4.91202 23.8499 4.57234 22.3773 5.55407L13.2136 11.6632" stroke="white" stroke-width="1.5" stroke-linecap="round" stroke-linejoin="round"/>
<path fill-rule="evenodd" clip-rule="evenodd" d="M30.8378 19.1664H35.0062C35.9271 19.1664 36.6736 19.9129 36.6736 20.8337V25.8358C36.6736 26.7567 35.9271 27.5032 35.0062 27.5032H30.8378C28.5357 27.5032 26.6694 25.6369 26.6694 23.3348V23.3348C26.6694 21.0326 28.5357 19.1664 30.8378 19.1664V19.1664Z" stroke="white" stroke-width="1.5" stroke-linecap="round" stroke-linejoin="round"/>
<path d="M20 35.0063H30.8378C33.14 35.0063 35.0062 33.14 35.0062 30.8379V27.5032" stroke="white" stroke-width="1.5" stroke-linecap="round" stroke-linejoin="round"/>
<circle cx="9.99586" cy="30.0042" r="6.66944" stroke="white" stroke-width="1.5" stroke-linecap="round" stroke-linejoin="round"/>
<path d="M12.2385 28.6836L9.43733 31.4831L7.7533 29.8041" stroke="white" stroke-width="1.5" stroke-linecap="round" stroke-linejoin="round"/>
<path d="M35.0063 19.1663V15.8316C35.0063 13.5295 33.14 11.6632 30.8379 11.6632H9.16218C6.86003 11.6632 4.99377 13.5295 4.99377 15.8316V20" stroke="white" stroke-width="1.5" stroke-linecap="round" stroke-linejoin="round"/>
</svg>
