<svg width="11" height="17" viewBox="0 0 11 17" fill="none" xmlns="http://www.w3.org/2000/svg">
<path d="M10.25 1.07455C10.25 0.956717 10.2021 0.843708 10.1169 0.760386C10.0316 0.677064 9.91601 0.630254 9.79545 0.630254H7.52273C6.37829 0.574531 5.25782 0.963826 4.40611 1.71308C3.55441 2.46233 3.04071 3.51064 2.97727 4.62894V7.02815H0.704545C0.583993 7.02815 0.468377 7.07496 0.383133 7.15829C0.29789 7.24161 0.25 7.35462 0.25 7.47245V9.7828C0.25 9.90064 0.29789 10.0136 0.383133 10.097C0.468377 10.1803 0.583993 10.2271 0.704545 10.2271H2.97727V16.1807C2.97727 16.2985 3.02516 16.4115 3.11041 16.4949C3.19565 16.5782 3.31127 16.625 3.43182 16.625H6.15909C6.27964 16.625 6.39526 16.5782 6.4805 16.4949C6.56575 16.4115 6.61364 16.2985 6.61364 16.1807V10.2271H8.99545C9.09654 10.2285 9.19522 10.197 9.27589 10.1374C9.35657 10.0779 9.41464 9.99374 9.44091 9.89832L10.0955 7.58797C10.1135 7.52232 10.116 7.45349 10.1026 7.38678C10.0892 7.32007 10.0603 7.25726 10.0181 7.20318C9.97595 7.1491 9.92166 7.1052 9.85942 7.07486C9.79718 7.04451 9.72864 7.02853 9.65909 7.02815H6.61364V4.62894C6.63625 4.40899 6.74192 4.20518 6.91002 4.0573C7.07812 3.90942 7.29658 3.8281 7.52273 3.8292H9.79545C9.91601 3.8292 10.0316 3.78239 10.1169 3.69907C10.2021 3.61575 10.25 3.50274 10.25 3.3849V1.07455Z" fill="black"/>
</svg>
