<svg width="17" height="17" viewBox="0 0 17 17" fill="none" xmlns="http://www.w3.org/2000/svg">
<path d="M16.3243 5.27369C16.3155 4.61238 16.1914 3.95764 15.9578 3.33877C15.7552 2.81676 15.4458 2.34267 15.0492 1.94681C14.6527 1.55095 14.1778 1.24202 13.655 1.03975C13.043 0.810421 12.3965 0.686419 11.7431 0.673024C10.9017 0.635478 10.6349 0.625 8.49913 0.625C6.36333 0.625 6.08957 0.625 5.25432 0.673024C4.60112 0.686517 3.95495 0.810518 3.34329 1.03975C2.82033 1.24188 2.34538 1.55076 1.94884 1.94664C1.5523 2.34252 1.2429 2.81667 1.04044 3.33877C0.81027 3.94922 0.686331 4.59447 0.673978 5.24662C0.63637 6.08747 0.625 6.35378 0.625 8.48603C0.625 10.6183 0.625 10.8907 0.673978 11.7254C0.687097 12.3786 0.810418 13.023 1.04044 13.635C1.24324 14.157 1.55287 14.6309 1.94954 15.0267C2.34621 15.4224 2.8212 15.7311 3.34417 15.9332C3.95415 16.1717 4.60043 16.3046 5.25519 16.3261C6.09744 16.3636 6.3642 16.375 8.5 16.375C10.6358 16.375 10.9096 16.375 11.7448 16.3261C12.3983 16.3133 13.0448 16.1895 13.6567 15.9603C14.1795 15.7578 14.6542 15.4487 15.0507 15.0529C15.4472 14.6571 15.7567 14.1831 15.9596 13.6612C16.1896 13.05 16.3129 12.4056 16.326 11.7516C16.3636 10.9117 16.375 10.6453 16.375 8.51223C16.3733 6.37998 16.3733 6.1093 16.3243 5.27369ZM8.49388 12.5183C6.26012 12.5183 4.45055 10.7117 4.45055 8.48166C4.45055 6.25162 6.26012 4.44506 8.49388 4.44506C9.56624 4.44506 10.5947 4.87035 11.3529 5.62736C12.1112 6.38437 12.5372 7.41109 12.5372 8.48166C12.5372 9.55224 12.1112 10.579 11.3529 11.336C10.5947 12.093 9.56624 12.5183 8.49388 12.5183ZM12.6981 5.23701C12.176 5.23701 11.7553 4.81615 11.7553 4.29575C11.7553 4.1722 11.7797 4.04986 11.827 3.93571C11.8744 3.82157 11.9438 3.71785 12.0313 3.63049C12.1188 3.54312 12.2227 3.47382 12.3371 3.42654C12.4514 3.37926 12.5739 3.35492 12.6977 3.35492C12.8215 3.35492 12.944 3.37926 13.0583 3.42654C13.1727 3.47382 13.2766 3.54312 13.3641 3.63049C13.4516 3.71785 13.521 3.82157 13.5684 3.93571C13.6157 4.04986 13.6401 4.1722 13.6401 4.29575C13.6401 4.81615 13.2185 5.23701 12.6981 5.23701Z" fill="black"/>
<path d="M8.49388 11.1038C9.94443 11.1038 11.1203 9.9298 11.1203 8.48166C11.1203 7.03352 9.94443 5.85957 8.49388 5.85957C7.04333 5.85957 5.86742 7.03352 5.86742 8.48166C5.86742 9.9298 7.04333 11.1038 8.49388 11.1038Z" fill="black"/>
</svg>
