<svg width="60" height="60" viewBox="0 0 60 60" fill="none" xmlns="http://www.w3.org/2000/svg">
<path d="M30.0536 3.42847C24.5855 3.43492 19.3432 5.60997 15.4767 9.47651C11.6101 13.3431 9.43506 18.5854 9.42861 24.0535C9.42206 28.522 10.8817 32.8693 13.5836 36.4285C13.5836 36.4285 14.1461 37.1691 14.238 37.276L30.0536 55.9285L45.8767 37.2666C45.9592 37.1672 46.5236 36.4285 46.5236 36.4285L46.5255 36.4228C49.2261 32.8652 50.685 28.52 50.6786 24.0535C50.6722 18.5854 48.4971 13.3431 44.6306 9.47651C40.764 5.60997 35.5217 3.43492 30.0536 3.42847ZM30.0536 31.5535C28.5702 31.5535 27.1202 31.1136 25.8868 30.2895C24.6535 29.4654 23.6922 28.294 23.1245 26.9236C22.5569 25.5531 22.4083 24.0451 22.6977 22.5903C22.9871 21.1354 23.7014 19.7991 24.7503 18.7502C25.7992 17.7013 27.1356 16.987 28.5904 16.6976C30.0453 16.4082 31.5533 16.5567 32.9237 17.1244C34.2942 17.692 35.4655 18.6533 36.2896 19.8867C37.1137 21.1201 37.5536 22.5701 37.5536 24.0535C37.5511 26.0418 36.7602 27.948 35.3542 29.354C33.9482 30.76 32.042 31.551 30.0536 31.5535Z" fill="#2D2D2D"/>
</svg>
