<svg width="165" height="44" viewBox="0 0 165 44" fill="none" xmlns="http://www.w3.org/2000/svg">
<path d="M52.4196 17.2554C52.4196 16.2814 52.5891 15.3409 52.9282 14.4338C53.2677 13.5266 53.7387 12.7532 54.3417 12.1134C54.945 11.4641 55.6563 10.9533 56.4759 10.5809C57.3055 10.2085 58.2003 10.0223 59.1614 10.0223C60.1229 10.0223 61.0273 10.2085 61.8754 10.5809C62.7236 10.9533 63.463 11.4641 64.0944 12.1134C64.7259 12.7532 65.2255 13.5266 65.5927 14.4338C65.9603 15.3409 66.1439 16.2814 66.1439 17.2554C66.1439 18.2294 65.9603 19.1508 65.5927 20.0197C65.2255 20.8791 64.7259 21.6286 64.0944 22.2684C63.463 22.9082 62.7236 23.4142 61.8754 23.7866C61.0273 24.159 60.1229 24.3452 59.1614 24.3452C58.4547 24.3452 57.8096 24.2259 57.2252 23.9872C56.6504 23.7389 56.1227 23.4142 55.6422 23.0132L55.5856 27.3101C55.5761 27.7779 55.4346 28.1742 55.1617 28.4989C54.8884 28.814 54.5112 28.9715 54.0307 28.9715C53.8045 28.9715 53.5927 28.9286 53.3947 28.8426C53.2061 28.7567 53.0365 28.6421 52.886 28.4989C52.7446 28.3461 52.6313 28.1695 52.5465 27.9689C52.4617 27.7588 52.4196 27.5393 52.4196 27.3101V17.2554ZM59.2747 21.0653C59.7929 21.0653 60.2829 20.965 60.7448 20.7645C61.2063 20.5544 61.6116 20.2775 61.9602 19.9338C62.3088 19.5805 62.5867 19.1699 62.7943 18.702C63.0015 18.2246 63.1053 17.7185 63.1053 17.1838C63.1053 16.6586 63.0015 16.1477 62.7943 15.6512C62.5867 15.1451 62.3088 14.7298 61.9602 14.4051C61.6116 14.0709 61.2063 13.8131 60.7448 13.6317C60.2829 13.4407 59.7929 13.3452 59.2747 13.3452C58.7565 13.3452 58.2711 13.4455 57.8186 13.646C57.3667 13.8465 56.9709 14.1187 56.6314 14.4624C56.2923 14.8062 56.0239 15.2311 55.8258 15.7372C55.6373 16.2432 55.543 16.7588 55.543 17.284C55.543 17.8092 55.6373 18.301 55.8258 18.7593C56.0239 19.2176 56.2923 19.6187 56.6314 19.9624C56.9709 20.3062 57.3667 20.5783 57.8186 20.7788C58.2711 20.9698 58.7565 21.0653 59.2747 21.0653ZM68.0379 22.426C68.0379 21.4233 68.2265 20.4781 68.6036 19.59C68.9899 18.6925 69.508 17.9142 70.1581 17.2554C70.8177 16.587 71.5856 16.0618 72.4623 15.6799C73.3386 15.2884 74.2715 15.0926 75.2607 15.0926H75.2888C75.8074 15.0926 76.2077 15.2406 76.4905 15.5366C76.773 15.8327 76.9144 16.2098 76.9144 16.6682C76.9144 16.8973 76.8722 17.1121 76.7874 17.3127C76.7023 17.5037 76.5848 17.6707 76.4339 17.814C76.2924 17.9477 76.1229 18.0575 75.9252 18.1434C75.7271 18.2198 75.515 18.258 75.2888 18.258H75.2185C74.6813 18.2675 74.1677 18.3821 73.6777 18.6017C73.1971 18.8118 72.7733 19.103 72.4056 19.4754C72.038 19.8383 71.7411 20.2632 71.5153 20.7502C71.2982 21.2372 71.1853 21.7623 71.1758 22.3257V27.3387C71.1758 27.5583 71.1336 27.7636 71.0488 27.9546C70.9732 28.1456 70.8648 28.3127 70.7234 28.4559C70.5915 28.5991 70.4314 28.7137 70.2429 28.7997C70.0547 28.8761 69.8566 28.9142 69.6494 28.9142C69.4328 28.9142 69.2252 28.8761 69.0275 28.7997C68.8389 28.7137 68.6694 28.5991 68.5184 28.4559C68.3679 28.3127 68.25 28.1456 68.1653 27.9546C68.0805 27.7636 68.0379 27.5583 68.0379 27.3387V22.426ZM80.4762 22.0965C80.4762 22.6217 80.5754 23.1134 80.7731 23.5718C80.9712 24.0301 81.2396 24.4312 81.5787 24.7749C81.9182 25.1187 82.3139 25.3908 82.7663 25.5913C83.2183 25.7918 83.7038 25.8921 84.222 25.8921C84.7496 25.8921 85.2397 25.7918 85.6921 25.5913C86.1536 25.3908 86.5543 25.1187 86.8934 24.7749C87.2325 24.4312 87.4963 24.0301 87.6849 23.5718C87.883 23.1134 87.9818 22.6217 87.9818 22.0965C87.9818 21.5714 87.883 21.0796 87.6849 20.6213C87.4872 20.1629 87.2184 19.7619 86.8793 19.4182C86.5402 19.0744 86.1395 18.807 85.678 18.6161C85.2256 18.4155 84.7401 18.3153 84.222 18.3153C83.7133 18.3153 83.2278 18.4155 82.7663 18.6161C82.3139 18.807 81.9182 19.0744 81.5787 19.4182C81.2396 19.7619 80.9712 20.1629 80.7731 20.6213C80.5754 21.0796 80.4762 21.5714 80.4762 22.0965ZM77.3242 22.0965C77.3242 21.1321 77.5033 20.225 77.8614 19.3752C78.229 18.5253 78.7236 17.7853 79.3456 17.1551C79.977 16.5154 80.7073 16.0141 81.5365 15.6512C82.3751 15.2788 83.2704 15.0926 84.222 15.0926C85.1735 15.0926 86.0688 15.2788 86.9074 15.6512C87.7461 16.0141 88.4764 16.5154 89.0983 17.1551C89.7203 17.7853 90.2103 18.5253 90.5685 19.3752C90.9357 20.225 91.1197 21.1321 91.1197 22.0965C91.1197 23.0609 90.9357 23.9681 90.5685 24.8179C90.2103 25.6582 89.7203 26.3934 89.0983 27.0236C88.4764 27.6538 87.7461 28.1551 86.9074 28.5275C86.0688 28.8904 85.1735 29.0718 84.222 29.0718C83.2704 29.0718 82.3751 28.8904 81.5365 28.5275C80.7073 28.1551 79.977 27.6538 79.3456 27.0236C78.7236 26.3934 78.229 25.6582 77.8614 24.8179C77.5033 23.9681 77.3242 23.0609 77.3242 22.0965ZM92.8297 25.534C92.7829 25.4385 92.7499 25.3526 92.7308 25.2762C92.7213 25.1903 92.7168 25.1091 92.7168 25.0327C92.7168 24.7558 92.8111 24.5314 92.9996 24.3596C93.1878 24.1877 93.3904 24.1017 93.6071 24.1017C93.9181 24.1017 94.215 24.2975 94.4979 24.689C94.6955 25.0709 94.9453 25.4195 95.2468 25.7345C95.5578 26.0401 95.9064 26.3027 96.293 26.5223C96.6888 26.7324 97.1126 26.8995 97.565 27.0236C98.017 27.1382 98.493 27.1955 98.9926 27.1955C99.5012 27.1955 100.005 27.1191 100.505 26.9663C101.014 26.804 101.466 26.57 101.862 26.2645C102.267 25.9589 102.592 25.577 102.837 25.1187C103.092 24.6603 103.219 24.1304 103.219 23.5288C103.219 22.9845 103.092 22.5262 102.837 22.1538C102.592 21.7814 102.262 21.4663 101.848 21.2085C101.442 20.9411 100.981 20.7167 100.463 20.5353C99.9536 20.3444 99.4355 20.1629 98.9078 19.9911C98.2011 19.8287 97.5084 19.6187 96.8298 19.3608C96.1516 19.103 95.5437 18.7736 95.0065 18.3726C94.4788 17.9715 94.05 17.4941 93.7204 16.9403C93.3999 16.3769 93.2399 15.7181 93.2399 14.9637C93.2399 14.1903 93.4045 13.498 93.7345 12.8869C94.0645 12.2758 94.4979 11.7554 95.035 11.3257C95.5718 10.896 96.1752 10.5666 96.8442 10.3374C97.5224 10.1083 98.2106 9.99365 98.9078 9.99365C99.4731 9.99365 100.02 10.0557 100.547 10.1799C101.084 10.2944 101.584 10.4663 102.046 10.6955C102.507 10.9247 102.927 11.2111 103.304 11.5549C103.68 11.889 103.996 12.2806 104.251 12.7294C104.316 12.8344 104.349 12.9585 104.349 13.1017C104.349 13.35 104.26 13.5601 104.081 13.7319C103.911 13.8943 103.708 13.9754 103.473 13.9754C103.379 13.9754 103.28 13.9611 103.176 13.9324C103.082 13.8943 102.983 13.837 102.879 13.7606C102.324 13.0731 101.73 12.5909 101.099 12.314C100.467 12.0371 99.7464 11.8986 98.9359 11.8986C98.4835 11.8986 98.0315 11.9654 97.5791 12.0991C97.1267 12.2328 96.7169 12.4286 96.3493 12.6864C95.9911 12.9442 95.6992 13.2688 95.473 13.6603C95.2468 14.0423 95.1339 14.4911 95.1339 15.0067C95.1339 15.5223 95.2703 15.952 95.5437 16.2958C95.8265 16.6395 96.1797 16.9307 96.6036 17.1695C97.0279 17.4082 97.4943 17.6039 98.003 17.7567C98.512 17.8999 98.9971 18.0336 99.459 18.1577C100.175 18.3869 100.868 18.6447 101.537 18.9312C102.215 19.2081 102.814 19.5518 103.332 19.9624C103.859 20.3634 104.283 20.8504 104.604 21.4233C104.924 21.9867 105.084 22.6647 105.084 23.4572C105.084 24.307 104.915 25.0805 104.576 25.7775C104.246 26.465 103.798 27.057 103.233 27.5535C102.668 28.0405 102.013 28.4225 101.268 28.6994C100.524 28.9667 99.7415 29.1004 98.9218 29.1004C98.2341 29.1004 97.5696 29.0097 96.929 28.8283C96.288 28.6469 95.6992 28.3938 95.162 28.0692C94.6248 27.7445 94.1538 27.3674 93.7485 26.9377C93.3528 26.508 93.0468 26.0401 92.8297 25.534ZM107.303 11.9416C107.303 11.6742 107.398 11.4451 107.586 11.2541C107.775 11.0631 107.996 10.9676 108.251 10.9676C108.515 10.9676 108.74 11.0631 108.929 11.2541C109.127 11.4355 109.226 11.6647 109.226 11.9416V15.2215H115.459C115.723 15.2215 115.949 15.317 116.138 15.508C116.326 15.6989 116.42 15.9281 116.42 16.1955C116.42 16.4438 116.326 16.6586 116.138 16.84C115.959 17.0215 115.732 17.1121 115.459 17.1121H109.226V22.2541C109.226 22.9511 109.353 23.6004 109.608 24.202C109.871 24.8036 110.23 25.3287 110.682 25.7775C111.134 26.2167 111.662 26.5653 112.265 26.8231C112.877 27.0714 113.537 27.1955 114.244 27.1955C114.866 27.1955 115.445 27.1 115.982 26.909C116.519 26.7181 117.028 26.4077 117.509 25.9781C117.612 25.8921 117.721 25.8205 117.834 25.7632C117.947 25.6964 118.083 25.6629 118.244 25.6629C118.46 25.6629 118.654 25.7537 118.823 25.9351C118.993 26.107 119.077 26.317 119.077 26.5653C119.077 26.7085 119.044 26.8517 118.979 26.995C118.922 27.1382 118.837 27.2623 118.724 27.3674C118.13 27.9403 117.452 28.3748 116.689 28.6707C115.935 28.9572 115.12 29.1004 114.244 29.1004C113.283 29.1004 112.378 28.9286 111.53 28.5848C110.691 28.2315 109.956 27.7493 109.325 27.1382C108.703 26.5175 108.208 25.7918 107.841 24.9611C107.482 24.1208 107.303 23.2137 107.303 22.2398V11.9416ZM121.721 22.1108C121.721 22.7984 121.853 23.4524 122.117 24.0731C122.38 24.6842 122.738 25.2237 123.19 25.6916C123.643 26.1499 124.171 26.5128 124.774 26.7801C125.386 27.0475 126.041 27.1812 126.739 27.1812C127.445 27.1812 128.105 27.0475 128.717 26.7801C129.33 26.5128 129.857 26.1499 130.3 25.6916C130.753 25.2237 131.106 24.6842 131.36 24.0731C131.624 23.4524 131.756 22.7984 131.756 22.1108C131.756 21.4138 131.624 20.755 131.36 20.1343C131.106 19.5136 130.753 18.9741 130.3 18.5158C129.857 18.0575 129.33 17.6946 128.717 17.4273C128.105 17.1599 127.445 17.0262 126.739 17.0262C126.041 17.0262 125.386 17.1599 124.774 17.4273C124.171 17.6946 123.643 18.0575 123.19 18.5158C122.738 18.9741 122.38 19.5136 122.117 20.1343C121.853 20.755 121.721 21.4138 121.721 22.1108ZM119.841 22.1108C119.841 21.1369 120.02 20.225 120.378 19.3752C120.745 18.5158 121.24 17.771 121.862 17.1408C122.493 16.5106 123.224 16.0141 124.053 15.6512C124.891 15.2788 125.787 15.0926 126.739 15.0926C127.7 15.0926 128.6 15.2788 129.438 15.6512C130.277 16.0141 131.007 16.5154 131.629 17.1551C132.251 17.7853 132.741 18.5253 133.099 19.3752C133.457 20.225 133.636 21.1369 133.636 22.1108C133.636 23.0753 133.457 23.9824 133.099 24.8322C132.741 25.6725 132.251 26.4077 131.629 27.038C131.007 27.6682 130.277 28.1695 129.438 28.5418C128.6 28.9047 127.7 29.0861 126.739 29.0861C125.787 29.0861 124.891 28.9047 124.053 28.5418C123.224 28.1695 122.493 27.6682 121.862 27.038C121.24 26.4077 120.745 25.6725 120.378 24.8322C120.02 23.9824 119.841 23.0753 119.841 22.1108ZM135.332 21.8101C135.332 20.8839 135.492 20.0149 135.813 19.2033C136.142 18.3821 136.595 17.6707 137.17 17.0692C137.744 16.4581 138.423 15.9759 139.205 15.6226C139.987 15.2693 140.835 15.0926 141.749 15.0926C142.663 15.0926 143.507 15.2693 144.279 15.6226C145.061 15.9663 145.735 16.4438 146.3 17.0549C146.875 17.6564 147.323 18.3678 147.643 19.189C147.964 20.0006 148.124 20.8695 148.124 21.7958V27.9689C148.124 28.2458 148.034 28.475 147.855 28.6564C147.686 28.8283 147.464 28.9142 147.191 28.9142C146.927 28.9142 146.701 28.8283 146.513 28.6564C146.333 28.475 146.244 28.2458 146.244 27.9689V21.8674C146.244 21.1989 146.131 20.5735 145.905 19.9911C145.688 19.3991 145.377 18.8834 144.972 18.4442C144.576 18.005 144.1 17.6612 143.544 17.4129C142.998 17.1551 142.4 17.0262 141.749 17.0262C141.099 17.0262 140.496 17.1504 139.94 17.3986C139.394 17.6469 138.918 17.9859 138.512 18.4155C138.107 18.8452 137.792 19.3561 137.565 19.9481C137.339 20.5306 137.226 21.156 137.226 21.8244V27.9689C137.226 28.2458 137.141 28.475 136.972 28.6564C136.802 28.8283 136.581 28.9142 136.307 28.9142C136.053 28.9142 135.827 28.8283 135.629 28.6564C135.431 28.475 135.332 28.2458 135.332 27.9689V21.8101ZM152.265 22.9702C152.34 23.5718 152.515 24.1352 152.788 24.6603C153.071 25.176 153.429 25.6295 153.862 26.021C154.296 26.403 154.786 26.7037 155.332 26.9233C155.888 27.143 156.473 27.2528 157.085 27.2528C157.368 27.2528 157.618 27.2432 157.834 27.2241C158.06 27.1955 158.268 27.1573 158.456 27.1096C158.654 27.0522 158.842 26.9806 159.022 26.8947C159.21 26.8088 159.403 26.7085 159.601 26.5939C159.705 26.5271 159.804 26.4841 159.898 26.465C160.002 26.4364 160.096 26.422 160.181 26.422C160.445 26.422 160.661 26.5271 160.831 26.7372C161.01 26.9472 161.099 27.1764 161.099 27.4246C161.099 27.5679 161.062 27.7111 160.986 27.8543C160.92 27.988 160.807 28.1026 160.647 28.1981C160.402 28.3413 160.152 28.4702 159.898 28.5848C159.653 28.6994 159.389 28.7949 159.106 28.8713C158.823 28.9381 158.517 28.9906 158.187 29.0288C157.858 29.067 157.49 29.0861 157.085 29.0861C156.133 29.0861 155.238 28.9047 154.399 28.5418C153.561 28.1695 152.826 27.6682 152.195 27.038C151.573 26.4077 151.078 25.6677 150.71 24.8179C150.352 23.9681 150.173 23.0609 150.173 22.0965C150.173 21.1321 150.352 20.225 150.71 19.3752C151.078 18.5253 151.573 17.7853 152.195 17.1551C152.826 16.5154 153.561 16.0141 154.399 15.6512C155.238 15.2788 156.133 15.0926 157.085 15.0926C158.027 15.0926 158.918 15.2788 159.756 15.6512C160.595 16.0141 161.325 16.5106 161.947 17.1408C162.579 17.771 163.078 18.511 163.446 19.3608C163.813 20.2011 164.002 21.0987 164.011 22.0535C164.011 22.3114 163.926 22.531 163.757 22.7124C163.587 22.8843 163.366 22.9702 163.092 22.9702H152.265ZM162.089 21.3661C162.013 20.7359 161.834 20.1534 161.552 19.6187C161.269 19.0744 160.906 18.6065 160.463 18.215C160.02 17.814 159.512 17.4989 158.937 17.2697C158.371 17.0405 157.764 16.926 157.113 16.926C156.463 16.926 155.851 17.0453 155.276 17.284C154.71 17.5132 154.211 17.8283 153.778 18.2294C153.344 18.6304 152.991 19.103 152.718 19.6473C152.444 20.182 152.275 20.755 152.209 21.3661H162.089Z" fill="#040404"/>
<path d="M18.3334 0C16.8714 1.10799 13.7218 3.88649 12.8196 6.13658C14.574 5.28427 19.5113 4.3723 25.2256 7.54286L18.3334 0Z" fill="#C1C1C1"/>
<path d="M5.78943 16.6417L9.90301 10.157L15.6371 9.63818C15.7368 10.6757 24.5706 11.5404 28.975 11.843L31.8421 15.4744L21.7451 16.2526C18.6537 18.5352 15.4709 18.933 14.2659 18.8465H11.2742C10.8753 18.0165 7.45146 17.0308 5.78943 16.6417Z" fill="#A5A5A5"/>
<path d="M0.413574 23.3111L3.54321 19.8469L11.8054 23.3111H17.564C19.1663 23.3111 21.3195 21.6615 22.1958 20.8367L33.4625 18.8572C33.8631 19.7479 35.4655 20.7954 36.2166 21.2078C36.7173 21.8017 37.0929 24.1771 37.2181 25.2906C32.1105 24.9936 22.4879 29.5382 18.3151 31.8477C13.3077 31.6497 4.29434 26.0741 0.413574 23.3111Z" fill="#7C7C7C"/>
<path d="M19.6149 36.5489C12.976 35.2295 3.7721 29.2332 0 26.3999L0.754418 28.3028C1.35795 28.7088 3.85592 32.1087 5.02948 33.7579C5.43181 33.8594 13.9987 39.8896 18.2318 42.8919C19.64 44.6172 21.0818 43.9492 21.6267 43.3994C28.7686 38.122 34.9967 31.1361 37.218 28.3028C32.5909 28.6073 23.5547 33.927 19.6149 36.5489Z" fill="#B7875B"/>
<path fill-rule="evenodd" clip-rule="evenodd" d="M151.548 22.9766C151.624 23.5781 151.798 24.1415 152.072 24.6667C152.354 25.1823 152.712 25.6359 153.146 26.0274C153.579 26.4093 154.069 26.7101 154.616 26.9297C155.171 27.1493 155.756 27.2591 156.368 27.2591C156.651 27.2591 156.901 27.2496 157.118 27.2305C157.344 27.2018 157.551 27.1636 157.739 27.1159C157.937 27.0586 158.126 26.987 158.305 26.9011C158.493 26.8151 158.686 26.7148 158.884 26.6003C158.988 26.5334 159.087 26.4904 159.181 26.4714C159.285 26.4427 159.379 26.4284 159.464 26.4284C159.728 26.4284 159.944 26.5334 160.114 26.7435C160.293 26.9536 160.382 27.1828 160.382 27.431C160.382 27.5742 160.345 27.7175 160.269 27.8607C160.203 27.9944 160.09 28.109 159.93 28.2044C159.685 28.3477 159.435 28.4766 159.181 28.5912C158.936 28.7057 158.672 28.8012 158.39 28.8776C158.107 28.9445 157.801 28.997 157.471 29.0352C157.141 29.0734 156.773 29.0925 156.368 29.0925C155.417 29.0925 154.521 28.911 153.683 28.5482C152.844 28.1758 152.109 27.6745 151.478 27.0443C150.856 26.4141 150.361 25.6741 149.994 24.8242C149.635 23.9744 149.456 23.0673 149.456 22.1029C149.456 21.1385 149.635 20.2313 149.994 19.3815C150.361 18.5317 150.856 17.7917 151.478 17.1615C152.109 16.5217 152.844 16.0204 153.683 15.6576C154.521 15.2852 155.417 15.099 156.368 15.099C157.311 15.099 158.201 15.2852 159.04 15.6576C159.878 16.0204 160.609 16.5169 161.231 17.1472C161.862 17.7774 162.362 18.5174 162.729 19.3672C163.096 20.2075 163.285 21.1051 163.294 22.0599C163.294 22.3177 163.209 22.5374 163.04 22.7188C162.87 22.8907 162.649 22.9766 162.376 22.9766H151.548ZM160.835 19.625C161.118 20.1597 161.297 20.7422 161.372 21.3724H151.492C151.558 20.7613 151.728 20.1884 152.001 19.6536C152.274 19.1094 152.627 18.6367 153.061 18.2357C153.494 17.8346 153.994 17.5196 154.559 17.2904C155.134 17.0517 155.746 16.9323 156.397 16.9323C157.047 16.9323 157.655 17.0469 158.22 17.276C158.795 17.5052 159.303 17.8203 159.746 18.2214C160.189 18.6129 160.552 19.0808 160.835 19.625Z" fill="#B7875B"/>
<path d="M134.615 21.8164C134.615 20.8902 134.776 20.0213 135.096 19.2097C135.426 18.3885 135.878 17.6771 136.453 17.0755C137.028 16.4644 137.706 15.9822 138.488 15.6289C139.27 15.2756 140.118 15.099 141.032 15.099C141.947 15.099 142.79 15.2756 143.563 15.6289C144.345 15.9727 145.018 16.4501 145.584 17.0612C146.158 17.6628 146.606 18.3742 146.926 19.1953C147.247 20.0069 147.407 20.8759 147.407 21.8021V27.9753C147.407 28.2522 147.318 28.4813 147.139 28.6628C146.969 28.8346 146.747 28.9206 146.474 28.9206C146.211 28.9206 145.984 28.8346 145.796 28.6628C145.617 28.4813 145.527 28.2522 145.527 27.9753V21.8737C145.527 21.2053 145.414 20.5799 145.188 19.9974C144.971 19.4054 144.66 18.8898 144.255 18.4505C143.859 18.0113 143.384 17.6676 142.827 17.4193C142.281 17.1615 141.683 17.0326 141.032 17.0326C140.382 17.0326 139.779 17.1567 139.223 17.4049C138.677 17.6532 138.201 17.9922 137.796 18.4219C137.39 18.8516 137.075 19.3624 136.849 19.9544C136.622 20.5369 136.509 21.1623 136.509 21.8308V27.9753C136.509 28.2522 136.425 28.4813 136.255 28.6628C136.085 28.8346 135.864 28.9206 135.591 28.9206C135.336 28.9206 135.11 28.8346 134.912 28.6628C134.714 28.4813 134.615 28.2522 134.615 27.9753V21.8164Z" fill="#B7875B"/>
<path fill-rule="evenodd" clip-rule="evenodd" d="M119.124 22.1172C119.124 21.1432 119.303 20.2313 119.661 19.3815C120.028 18.5221 120.523 17.7774 121.145 17.1472C121.776 16.5169 122.507 16.0204 123.336 15.6576C124.175 15.2852 125.07 15.099 126.022 15.099C126.983 15.099 127.883 15.2852 128.721 15.6576C129.56 16.0204 130.29 16.5217 130.912 17.1615C131.534 17.7917 132.024 18.5317 132.382 19.3815C132.74 20.2313 132.919 21.1432 132.919 22.1172C132.919 23.0816 132.74 23.9887 132.382 24.8386C132.024 25.6788 131.534 26.4141 130.912 27.0443C130.29 27.6745 129.56 28.1758 128.721 28.5482C127.883 28.911 126.983 29.0925 126.022 29.0925C125.07 29.0925 124.175 28.911 123.336 28.5482C122.507 28.1758 121.776 27.6745 121.145 27.0443C120.523 26.4141 120.028 25.6788 119.661 24.8386C119.303 23.9887 119.124 23.0816 119.124 22.1172ZM121.4 24.0795C121.136 23.4588 121.004 22.8047 121.004 22.1172C121.004 21.4201 121.136 20.7613 121.4 20.1407C121.664 19.52 122.022 18.9805 122.474 18.5221C122.926 18.0638 123.454 17.701 124.057 17.4336C124.67 17.1663 125.324 17.0326 126.022 17.0326C126.729 17.0326 127.388 17.1663 128.001 17.4336C128.613 17.701 129.141 18.0638 129.584 18.5221C130.036 18.9805 130.389 19.52 130.644 20.1407C130.907 20.7613 131.039 21.4201 131.039 22.1172C131.039 22.8047 130.907 23.4588 130.644 24.0795C130.389 24.6906 130.036 25.23 129.584 25.6979C129.141 26.1563 128.613 26.5191 128.001 26.7865C127.388 27.0538 126.729 27.1875 126.022 27.1875C125.324 27.1875 124.67 27.0538 124.057 26.7865C123.454 26.5191 122.926 26.1563 122.474 25.6979C122.022 25.23 121.664 24.6906 121.4 24.0795Z" fill="#B7875B"/>
<path d="M106.587 11.9479C106.587 11.6805 106.681 11.4514 106.869 11.2604C107.058 11.0695 107.279 10.974 107.534 10.974C107.798 10.974 108.024 11.0695 108.212 11.2604C108.41 11.4419 108.509 11.671 108.509 11.9479V15.2279H114.742C115.006 15.2279 115.232 15.3234 115.421 15.5143C115.609 15.7053 115.703 15.9345 115.703 16.2018C115.703 16.4501 115.609 16.665 115.421 16.8464C115.242 17.0278 115.016 17.1185 114.742 17.1185H108.509V22.2604C108.509 22.9575 108.636 23.6068 108.891 24.2084C109.155 24.8099 109.513 25.3351 109.965 25.7838C110.417 26.2231 110.945 26.5716 111.548 26.8295C112.161 27.0777 112.82 27.2018 113.527 27.2018C114.149 27.2018 114.728 27.1064 115.265 26.9154C115.803 26.7244 116.311 26.4141 116.792 25.9844C116.896 25.8985 117.004 25.8268 117.117 25.7696C117.23 25.7027 117.367 25.6693 117.527 25.6693C117.744 25.6693 117.937 25.76 118.106 25.9414C118.276 26.1133 118.361 26.3234 118.361 26.5716C118.361 26.7148 118.328 26.8581 118.262 27.0013C118.205 27.1445 118.12 27.2687 118.008 27.3737C117.414 27.9466 116.736 28.3811 115.972 28.6771C115.218 28.9635 114.403 29.1068 113.527 29.1068C112.566 29.1068 111.661 28.9349 110.813 28.5912C109.974 28.2379 109.239 27.7557 108.608 27.1445C107.986 26.5239 107.491 25.7982 107.124 24.9675C106.766 24.1272 106.587 23.2201 106.587 22.2461V11.9479Z" fill="#B7875B"/>
<path d="M92.1129 25.5404C92.0662 25.4449 92.0331 25.359 92.0141 25.2826C92.0046 25.1966 92 25.1155 92 25.0391C92 24.7622 92.0943 24.5378 92.2829 24.3659C92.471 24.194 92.6736 24.1081 92.8903 24.1081C93.2013 24.1081 93.4982 24.3038 93.7811 24.6953C93.9788 25.0773 94.2285 25.4258 94.53 25.7409C94.841 26.0465 95.1896 26.309 95.5762 26.5287C95.972 26.7387 96.3959 26.9058 96.8483 27.03C97.3003 27.1445 97.7762 27.2018 98.2758 27.2018C98.7844 27.2018 99.2885 27.1254 99.7881 26.9727C100.297 26.8103 100.749 26.5764 101.145 26.2709C101.55 25.9653 101.875 25.5833 102.12 25.125C102.375 24.6667 102.502 24.1367 102.502 23.5352C102.502 22.9909 102.375 22.5326 102.12 22.1602C101.875 21.7878 101.546 21.4727 101.131 21.2148C100.726 20.9475 100.264 20.7231 99.7459 20.5417C99.2368 20.3507 98.7187 20.1693 98.191 19.9974C97.4843 19.8351 96.7916 19.625 96.113 19.3672C95.4348 19.1094 94.8269 18.78 94.2897 18.3789C93.7621 17.9779 93.3332 17.5004 93.0036 16.9466C92.6832 16.3833 92.5231 15.7244 92.5231 14.9701C92.5231 14.1966 92.6877 13.5044 93.0177 12.8932C93.3477 12.2821 93.7811 11.7617 94.3183 11.332C94.855 10.9024 95.4584 10.5729 96.1275 10.3437C96.8057 10.1146 97.4938 10 98.191 10C98.7563 10 99.303 10.0621 99.8307 10.1862C100.367 10.3008 100.867 10.4727 101.329 10.7018C101.79 10.931 102.21 11.2175 102.587 11.5612C102.964 11.8954 103.279 12.2869 103.534 12.7357C103.6 12.8407 103.633 12.9648 103.633 13.1081C103.633 13.3564 103.543 13.5664 103.364 13.7383C103.194 13.9006 102.992 13.9818 102.756 13.9818C102.662 13.9818 102.563 13.9675 102.46 13.9388C102.365 13.9006 102.266 13.8433 102.163 13.7669C101.607 13.0795 101.013 12.5972 100.382 12.3203C99.7505 12.0434 99.0297 11.9049 98.2191 11.9049C97.7667 11.9049 97.3147 11.9718 96.8623 12.1055C96.4099 12.2392 96.0001 12.4349 95.6325 12.6927C95.2744 12.9505 94.9824 13.2752 94.7562 13.6667C94.53 14.0486 94.4171 14.4974 94.4171 15.013C94.4171 15.5287 94.5536 15.9584 94.8269 16.3021C95.1098 16.6458 95.4629 16.9371 95.8868 17.1758C96.3111 17.4145 96.7776 17.6102 97.2862 17.763C97.7953 17.9063 98.2803 18.0399 98.7423 18.1641C99.4585 18.3932 100.151 18.6511 100.82 18.9375C101.498 19.2144 102.097 19.5582 102.615 19.9688C103.143 20.3698 103.567 20.8568 103.887 21.4297C104.208 21.9931 104.368 22.671 104.368 23.4635C104.368 24.3134 104.198 25.0868 103.859 25.7838C103.529 26.4714 103.081 27.0634 102.516 27.5599C101.951 28.0469 101.296 28.4288 100.551 28.7057C99.8071 28.9731 99.0247 29.1068 98.2051 29.1068C97.5174 29.1068 96.8528 29.0161 96.2123 28.8346C95.5713 28.6532 94.9824 28.4002 94.4452 28.0755C93.9081 27.7509 93.437 27.3737 93.0318 26.944C92.636 26.5143 92.33 26.0465 92.1129 25.5404Z" fill="#B7875B"/>
</svg>
