<svg width="25" height="25" viewBox="0 0 25 25" fill="none" xmlns="http://www.w3.org/2000/svg">
<path d="M22.3958 8.84167V17.5781C22.3958 19.0885 21.1718 20.3125 19.6614 20.3125H5.3385C4.6133 20.3125 3.9178 20.0244 3.40501 19.5116C2.89221 18.9988 2.60413 18.3033 2.60413 17.5781V8.84167L12.1864 14.1125C12.3817 14.2198 12.6187 14.2198 12.8135 14.1125L22.3958 8.84115V8.84167ZM19.6614 4.6875C20.3752 4.68757 21.0607 4.96675 21.5714 5.4654C22.0821 5.96406 22.3776 6.64266 22.3948 7.35625L12.5 12.799L2.60517 7.35573L2.60621 7.30885C2.63538 6.60378 2.936 5.93728 3.44522 5.44874C3.95444 4.96019 4.63282 4.68743 5.3385 4.6875H19.6614Z" fill="#CC9E74"/>
</svg>
